<svg width="128" height="128" viewBox="0 0 128 128" fill="none" xmlns="http://www.w3.org/2000/svg">
<path d="M73.5896 52.2437H54.978C52.6406 52.2411 50.3997 51.3115 48.7469 49.6587C47.0942 48.0059 46.1645 45.765 46.1619 43.4277V24.816C46.1645 22.4787 47.0942 20.2378 48.7469 18.585C50.3997 16.9323 52.6406 16.0026 54.978 16H73.5896C75.927 16.0026 78.1679 16.9323 79.8206 18.585C81.4734 20.2378 82.4031 22.4787 82.4056 24.816V43.4277C82.4031 45.765 81.4734 48.0059 79.8206 49.6587C78.1679 51.3115 75.927 52.2411 73.5896 52.2437ZM54.978 21.8774C54.1986 21.8774 53.4511 22.187 52.9 22.7381C52.3489 23.2892 52.0393 24.0367 52.0393 24.816V43.4277C52.0393 44.2071 52.3489 44.9545 52.9 45.5056C53.4511 46.0568 54.1986 46.3664 54.978 46.3664H73.5896C74.369 46.3664 75.1165 46.0568 75.6676 45.5056C76.2187 44.9545 76.5283 44.2071 76.5283 43.4277V24.816C76.5283 24.0367 76.2187 23.2892 75.6676 22.7381C75.1165 22.187 74.369 21.8774 73.5896 21.8774H54.978Z" fill="#E0E9FB"/>
<path d="M73.5896 92.4057H54.978C52.6406 92.4031 50.3997 91.4734 48.7469 89.8207C47.0942 88.1679 46.1645 85.927 46.1619 83.5896V64.978C46.1645 62.6406 47.0942 60.3997 48.7469 58.747C50.3997 57.0942 52.6406 56.1645 54.978 56.162H73.5896C75.927 56.1645 78.1679 57.0942 79.8206 58.747C81.4734 60.3997 82.4031 62.6406 82.4056 64.978V83.5896C82.4031 85.927 81.4734 88.1679 79.8206 89.8207C78.1679 91.4734 75.927 92.4031 73.5896 92.4057ZM54.978 62.0393C54.1986 62.0393 53.4511 62.3489 52.9 62.9C52.3489 63.4511 52.0393 64.1986 52.0393 64.978V83.5896C52.0393 84.369 52.3489 85.1165 52.9 85.6676C53.4511 86.2187 54.1986 86.5283 54.978 86.5283H73.5896C74.369 86.5283 75.1165 86.2187 75.6676 85.6676C76.2187 85.1165 76.5283 84.369 76.5283 83.5896V64.978C76.5283 64.1986 76.2187 63.4511 75.6676 62.9C75.1165 62.3489 74.369 62.0393 73.5896 62.0393H54.978Z" fill="#E0E9FB"/>
<path d="M33.4277 92.4057H14.816C12.4787 92.4031 10.2378 91.4734 8.58502 89.8207C6.93226 88.1679 6.00259 85.927 6 83.5896V64.978C6.00259 62.6406 6.93226 60.3997 8.58502 58.747C10.2378 57.0942 12.4787 56.1645 14.816 56.162H33.4277C35.765 56.1645 38.0059 57.0942 39.6587 58.747C41.3115 60.3997 42.2411 62.6406 42.2437 64.978V83.5896C42.2411 85.927 41.3115 88.1679 39.6587 89.8207C38.0059 91.4734 35.765 92.4031 33.4277 92.4057ZM14.816 62.0393C14.0367 62.0393 13.2892 62.3489 12.7381 62.9C12.187 63.4511 11.8774 64.1986 11.8774 64.978V83.5896C11.8774 84.369 12.187 85.1165 12.7381 85.6676C13.2892 86.2187 14.0367 86.5283 14.816 86.5283H33.4277C34.2071 86.5283 34.9545 86.2187 35.5056 85.6676C36.0568 85.1165 36.3664 84.369 36.3664 83.5896V64.978C36.3664 64.1986 36.0568 63.4511 35.5056 62.9C34.9545 62.3489 34.2071 62.0393 33.4277 62.0393H14.816Z" fill="#E0E9FB"/>
<path d="M113.752 92.4057H95.14C92.8026 92.4031 90.5617 91.4734 88.9089 89.8207C87.2562 88.1679 86.3265 85.927 86.3239 83.5896V64.978C86.3265 62.6406 87.2562 60.3997 88.9089 58.747C90.5617 57.0942 92.8026 56.1645 95.14 56.162H113.752C116.089 56.1645 118.33 57.0942 119.983 58.747C121.635 60.3997 122.565 62.6406 122.568 64.978V83.5896C122.565 85.927 121.635 88.1679 119.983 89.8207C118.33 91.4734 116.089 92.4031 113.752 92.4057ZM95.14 62.0393C94.3606 62.0393 93.6131 62.3489 93.062 62.9C92.5109 63.4511 92.2013 64.1986 92.2013 64.978V83.5896C92.2013 84.369 92.5109 85.1165 93.062 85.6676C93.6131 86.2187 94.3606 86.5283 95.14 86.5283H113.752C114.531 86.5283 115.278 86.2187 115.83 85.6676C116.381 85.1165 116.69 84.369 116.69 83.5896V64.978C116.69 64.1986 116.381 63.4511 115.83 62.9C115.278 62.3489 114.531 62.0393 113.752 62.0393H95.14Z" fill="#E0E9FB"/>
<path d="M114.241 112.976H14.3263C12.118 112.976 10.0002 112.099 8.43871 110.538C6.87723 108.976 6 106.858 6 104.65C6 102.442 6.87723 100.324 8.43871 98.7626C10.0002 97.2012 12.118 96.3239 14.3263 96.3239H114.241C116.45 96.3239 118.567 97.2012 120.129 98.7626C121.69 100.324 122.568 102.442 122.568 104.65C122.568 106.858 121.69 108.976 120.129 110.538C118.567 112.099 116.45 112.976 114.241 112.976ZM14.3263 102.201C13.6768 102.201 13.0539 102.459 12.5946 102.919C12.1354 103.378 11.8774 104.001 11.8774 104.65C11.8774 105.3 12.1354 105.923 12.5946 106.382C13.0539 106.841 13.6768 107.099 14.3263 107.099H114.241C114.891 107.099 115.514 106.841 115.973 106.382C116.432 105.923 116.69 105.3 116.69 104.65C116.69 104.001 116.432 103.378 115.973 102.919C115.514 102.459 114.891 102.201 114.241 102.201H14.3263Z" fill="#E0E9FB"/>
</svg>
